<svg version="1.1" xmlns="http://www.w3.org/2000/svg" style="display: block;" viewBox="0 0 1144 1196" width="286" height="299" preserveAspectRatio="none">
<path transform="translate(0,0)" fill="rgb(255,255,255)" d="M 0 0 L 1144 0 L 1144 1196 L 0 1196 L 0 0 z"/>
<path transform="translate(0,0)" fill="rgb(3,3,3)" d="M 512.086 138.178 C 529.504 137.282 603.233 136.502 616.465 140.209 C 631.813 144.446 644.8 154.699 652.485 168.643 C 657.152 177.07 664.504 195.928 668.972 205.921 L 706.964 290.593 L 823.821 550.01 L 938.836 803.886 C 947.929 824.341 957.151 844.737 966.503 865.075 C 979.578 893.509 1008.1 939.159 968.429 963.369 C 954.564 971.829 936.073 966.757 921.539 968.129 C 853.912 974.513 852.118 951.556 828.204 899.883 C 811.194 863.436 794.545 826.822 778.262 790.044 L 641.33 492.269 C 624.064 455.234 607.267 414.113 588.846 377.908 C 573.642 354.355 547.913 353.53 533.075 378.216 C 524.745 392.076 517.869 408.787 510.939 423.575 C 497.256 452.465 483.733 481.43 470.369 510.468 L 340.794 789.129 L 289.771 899.535 C 279.886 920.772 266.244 964.243 241.969 966.577 C 222.784 968.421 163.636 971.541 148.435 962.157 C 139.238 956.472 132.723 947.318 130.365 936.767 C 128.095 926.601 129.278 915.291 133.26 905.772 C 141.266 886.631 150.241 867.344 158.734 848.397 C 174.552 812.325 190.721 776.409 207.238 740.651 L 335.837 457.575 L 429.413 253.019 L 452.637 201.593 C 466.913 169.814 474.296 146.845 512.086 138.178 z"/>
<path transform="translate(0,0)" fill="rgb(25,62,113)" d="M 558.507 545.094 C 577.629 545.243 579.211 555.704 586.695 570.872 C 590.574 578.734 593.987 586.937 597.79 594.846 C 618.148 636.794 637.993 678.99 657.32 721.423 L 728.744 874.899 C 737.938 894.952 748.087 914.499 756.499 934.925 C 761.855 947.928 759.583 956.721 747.956 964.697 C 734.074 966.693 699.565 965.795 683.74 965.798 L 560.5 965.867 L 439.089 965.818 C 420.13 965.837 400.967 965.974 382.2 965.992 C 366.868 966.007 354.352 953.007 360.741 938.398 C 370.804 915.389 382.197 892.216 392.939 869.454 C 413.754 824.772 434.922 780.257 456.443 735.911 L 509.788 624.68 C 519.52 604.181 529.199 583.098 539.472 562.887 C 545.32 551.385 546.671 548.634 558.507 545.094 z"/>
</svg>