<svg version="1.1" xmlns="http://www.w3.org/2000/svg" style="display: block;" viewBox="0 0 2048 1024" width="1774" height="887" preserveAspectRatio="none">
<path transform="translate(0,0)" fill="rgb(255,255,255)" d="M 0 0 L 2048 0 L 2048 1024 L 0 1024 L 0 0 z"/>
<path transform="translate(0,0)" fill="rgb(0,0,0)" d="M 394.387 366.179 C 405.867 365.457 422.466 366.508 431.969 365.831 C 484.473 362.088 519.562 372.35 515.131 433.8 C 514.177 447.019 516.611 465.482 513.906 479.913 C 512.714 486.586 510.169 492.944 506.428 498.596 C 498.216 510.909 486.564 516.467 472.585 519.227 C 450.612 521.102 391.349 523.06 373.177 511.925 C 362.18 505.191 354.427 494.241 351.729 481.632 C 347.73 463.794 350.338 425.507 351.282 406.468 C 352.37 384.544 374.227 370.182 394.387 366.179 z"/>
<path transform="translate(0,0)" fill="rgb(255,255,255)" d="M 399.666 389.193 C 411.379 388.581 464.455 387.406 476.427 392.127 C 495.645 399.705 493.253 472.61 482.842 487.66 C 480.304 491.33 472.785 494.547 467.308 495.98 C 447.825 496.142 376.358 503.708 376.923 478.094 C 377.578 448.389 362.529 398.024 399.666 389.193 z"/>
<path transform="translate(0,0)" fill="rgb(0,0,0)" d="M 1022.23 366.177 C 1033.45 365.47 1048.43 365.877 1059.87 365.865 L 1129.18 365.859 L 1129.13 389.017 L 1062.19 389.034 C 1042.61 389.053 1003.17 382.731 1007.47 414.552 C 1010.25 435.176 1037.03 431.504 1052.46 431.42 C 1085.21 431.243 1128.37 425.133 1133.85 469.731 C 1137.49 497.741 1119.74 516.346 1092.3 519.557 L 984.895 519.688 L 984.984 496.229 L 1061.67 496.128 C 1076.89 496.113 1098.14 500.212 1106.95 486.029 C 1110.1 480.909 1110.98 474.709 1109.39 468.91 C 1105.15 452.853 1087.03 455.299 1074.83 454.679 C 1050.99 453.467 1023.44 459.517 1001.98 447.221 C 980.897 435.137 977.762 404.985 989.934 385.512 C 997.056 374.193 1009.34 368.764 1022.23 366.177 z"/>
<path transform="translate(0,0)" fill="rgb(0,0,0)" d="M 148.046 365.907 L 218.092 365.818 C 232.271 365.779 251.939 364.604 265.349 367.308 C 299.276 374.151 313.048 416.788 289.882 442.375 C 277.963 455.541 265.215 458.14 248.74 459.011 C 268.309 478.988 287.658 499.179 306.783 519.581 L 272.162 519.853 C 255.526 502.267 238.789 484.777 221.952 467.383 L 213.787 458.807 L 172.958 458.702 L 173.024 519.648 L 147.982 519.713 L 148.035 435.872 C 177.312 435.269 206.776 435.991 236.062 435.85 C 243.098 435.817 250.244 436.131 257.18 434.721 C 261.67 433.792 265.813 431.632 269.145 428.482 C 273.764 424.067 276.153 418.18 276.177 411.81 C 276.175 405.712 273.782 399.857 269.511 395.504 C 260.287 386.254 232.343 388.905 219.421 388.916 L 147.996 389.045 L 148.046 365.907 z"/>
<path transform="translate(0,0)" fill="rgb(0,0,0)" d="M 1361.26 365.838 L 1432.47 365.783 C 1445.99 365.765 1460.11 364.935 1473.56 367.146 C 1508.42 372.874 1523.12 414.002 1501.3 441.174 C 1490.3 454.877 1477.38 457.541 1460.9 459.146 C 1479.37 477.644 1500.07 500.162 1517.79 519.563 L 1483.9 519.691 L 1432.18 465.687 L 1425.76 458.8 L 1386.94 458.795 L 1386.92 519.753 L 1361.33 519.639 L 1361.31 435.738 L 1428.18 435.828 C 1442.36 435.86 1468.64 438.518 1478.99 429.045 C 1483.51 424.91 1486.15 419.12 1486.31 413.002 C 1487.06 382.682 1449.24 388.895 1428.86 388.95 L 1361.36 389.039 L 1361.26 365.838 z"/>
<path transform="translate(0,0)" fill="rgb(0,0,0)" d="M 785.747 365.928 L 852.452 365.838 C 867.508 365.782 886.95 364.38 901.04 367.641 C 946.109 378.071 939.307 420.468 939.624 455.342 C 939.795 474.131 939.705 490.07 925.777 503.981 C 918.798 510.872 910.042 515.689 900.486 517.896 C 888.834 520.701 866.386 519.835 853.709 519.821 L 785.608 519.686 L 785.612 489.102 L 785.679 435.847 L 811.018 435.712 L 810.977 496.098 C 836.046 495.949 866.305 497.338 891.249 495.276 C 895.766 494.903 902.955 490.891 906.406 487.561 C 909.588 484.527 911.851 480.658 912.935 476.397 C 915.525 466.276 913.356 457.628 913.865 448.173 C 917.223 385.864 907.875 388.778 852.442 388.961 L 785.802 389.018 L 785.747 365.928 z"/>
<path transform="translate(0,0)" fill="rgb(0,0,0)" d="M 1220.46 366.161 C 1252.88 365.032 1289.51 365.864 1322.23 365.887 L 1322.21 389.052 L 1260.3 388.896 C 1216.07 388.826 1201.54 383.28 1201.4 436.882 C 1201.24 500.503 1205.93 496.691 1267.5 496.16 L 1322.35 496.113 L 1322.22 519.79 C 1300.07 519.292 1277.3 520.078 1255.1 519.83 C 1243 519.695 1228.54 520.579 1216.79 518.486 C 1210.09 517.295 1203.71 514.75 1198.03 511.008 C 1187.58 504.304 1180.31 493.628 1177.9 481.445 C 1174.15 463.006 1177.03 426.74 1177.5 406.908 C 1178.02 384.775 1200.43 370.248 1220.46 366.161 z"/>
<path transform="translate(0,0)" fill="rgb(0,0,0)" d="M 1639.66 365.925 L 1700.63 365.789 C 1712.23 365.776 1732.34 365.047 1742.97 367.44 C 1750.5 369.069 1757.43 372.743 1763 378.056 C 1781.45 395.718 1781.23 427.713 1763.12 445.487 C 1747.02 461.287 1723.26 458.93 1702.58 458.889 L 1664.7 458.762 L 1664.64 519.69 L 1639.77 519.701 L 1639.7 435.789 C 1659.27 435.637 1678.83 435.646 1698.4 435.814 C 1709.88 435.856 1720.33 436.248 1731.92 434.994 C 1757.53 432.223 1758.66 393.451 1733.85 389.639 C 1724.25 388.164 1711.09 388.919 1700.99 388.94 L 1639.67 389.086 L 1639.66 365.925 z"/>
<path transform="translate(0,0)" fill="rgb(0,0,0)" d="M 639.323 366.622 L 659.507 366.607 C 683.852 416.557 712.524 469.792 735.504 519.601 L 708.957 519.717 C 689.761 480.8 670.759 441.788 651.954 402.68 L 649.413 398.372 C 643.827 404.108 596.804 504.657 589.625 519.766 L 561.635 519.549 L 639.323 366.622 z"/>
<path transform="translate(0,0)" fill="rgb(0,0,0)" d="M 1568.62 366.047 L 1594.95 366.075 C 1595.1 383.069 1596.7 514.987 1593.69 519.753 L 1568.6 519.638 L 1568.62 366.047 z"/>
<path transform="translate(0,0)" fill="rgb(0,0,0)" d="M 1805.44 365.923 L 1944.96 365.827 L 1944.96 389.066 L 1805.33 389.051 L 1805.44 365.923 z"/>
<path transform="translate(0,0)" fill="rgb(20,71,107)" d="M 648.736 446.576 C 653.182 449.698 682.62 510.014 687.12 519.491 C 675.185 519.316 662.727 519.537 650.75 519.586 C 637.919 519.739 624.765 519.566 611.906 519.543 C 623.971 495.115 636.248 470.791 648.736 446.576 z"/>
<path transform="translate(0,0)" fill="rgb(0,0,0)" d="M 1861.85 411.001 L 1887.86 410.883 L 1887.91 519.534 C 1879.33 519.722 1870.4 519.632 1861.79 519.667 L 1861.85 411.001 z"/>
<path transform="translate(0,0)" fill="rgb(20,71,107)" d="M 721.89 613.985 C 746.884 612.26 749.886 644.526 731.122 655.174 C 705.119 656.966 703.06 624.826 721.89 613.985 z"/>
<path transform="translate(0,0)" fill="rgb(255,255,255)" d="M 724.686 619.843 C 740.065 622.993 739.972 641.629 728.11 649.26 C 712.848 646.703 712.664 627.113 724.686 619.843 z"/>
<path transform="translate(0,0)" fill="rgb(20,71,107)" d="M 1562.04 614.125 C 1588.66 612.098 1589.59 646.362 1570.5 655.482 C 1548.12 657.548 1542.57 626.277 1562.04 614.125 z"/>
<path transform="translate(0,0)" fill="rgb(255,255,255)" d="M 1564.7 620.012 C 1565.52 620.124 1566.33 620.255 1567.14 620.406 C 1579.92 622.813 1580.04 642.051 1568.25 649.195 C 1553.12 646.252 1553.69 627.736 1564.7 620.012 z"/>
<path transform="translate(0,0)" fill="rgb(20,71,107)" d="M 899.919 614.222 C 913.355 613.893 934.601 611.627 925.143 632.939 C 928.218 642.687 930.98 640.395 926.507 650.908 C 919.793 656.746 908.849 655.145 899.807 654.98 L 899.919 614.222 z"/>
<path transform="translate(0,0)" fill="rgb(255,255,255)" d="M 906.347 636.736 C 911.138 636.61 918.142 635.504 921.443 639.325 C 922.799 642.518 921.923 644.278 920.937 647.64 C 915.655 648.238 911.847 649.331 907.453 646.966 C 905.575 644.226 906.205 640.202 906.347 636.736 z"/>
<path transform="translate(0,0)" fill="rgb(255,255,255)" d="M 906.19 620.681 C 910.252 620.631 915.928 619.866 919.189 621.853 C 921.553 625.5 920.865 624.408 920.9 629.28 C 920.383 629.405 919.863 629.52 919.342 629.625 C 916.029 630.312 910.731 631.313 907.899 629.448 C 905.511 625.947 906.32 625.701 906.19 620.681 z"/>
<path transform="translate(0,0)" fill="rgb(20,71,107)" d="M 1430.98 614.211 C 1439.27 613.967 1445.61 613.04 1452.82 618.089 C 1464.3 626.135 1461.66 639.999 1454.75 650.288 C 1447.27 656.416 1440.44 655.093 1430.89 654.95 L 1430.98 614.211 z"/>
<path transform="translate(0,0)" fill="rgb(255,255,255)" d="M 1437.24 620.901 C 1454.32 620.488 1457.41 631.298 1450.59 645.258 C 1432.48 657.989 1437.05 630.805 1437.24 620.901 z"/>
<path transform="translate(0,0)" fill="rgb(20,71,107)" d="M 588.192 614.224 C 596.273 613.923 602.351 613.001 609.482 617.671 C 621.588 625.599 619.182 639.997 611.816 650.475 C 604.322 656.141 597.36 655.05 588.129 655.017 L 588.192 614.224 z"/>
<path transform="translate(0,0)" fill="rgb(255,255,255)" d="M 594.784 620.92 C 611.684 620.542 613.895 630.861 608.268 644.699 C 605.053 647.31 604.235 647.448 600.252 648.627 C 591.229 647.061 594.596 628.731 594.784 620.92 z"/>
<path transform="translate(0,0)" fill="rgb(20,71,107)" d="M 1001.17 614.173 C 1009.86 613.974 1016.52 613.099 1023.8 618.824 C 1034.52 627.255 1031.81 640.966 1024.62 650.642 C 1017.23 656.267 1010.39 655.059 1001.21 654.944 L 1001.17 614.173 z"/>
<path transform="translate(0,0)" fill="rgb(255,255,255)" d="M 1007.65 620.825 C 1010.18 620.792 1013.89 620.657 1016.22 621.496 C 1019.35 622.653 1021.83 625.093 1023.03 628.2 C 1025.08 633.371 1023.28 639.86 1021.23 644.73 C 1018.03 647.267 1017.17 647.407 1013.24 648.566 C 1004.49 647.036 1007.61 628.632 1007.65 620.825 z"/>
<path transform="translate(0,0)" fill="rgb(20,71,107)" d="M 1109.06 614.09 C 1117.42 613.937 1123.46 613.083 1130.7 618.151 C 1141.8 625.916 1139.82 640.276 1132.75 650.248 C 1125.47 656.317 1118.28 655.103 1109.08 654.962 L 1109.06 614.09 z"/>
<path transform="translate(0,0)" fill="rgb(255,255,255)" d="M 1115.77 620.868 C 1132.36 620.631 1134.56 630.846 1129.12 644.669 C 1125.83 647.301 1125.32 647.506 1121.25 648.631 C 1118.2 648.053 1116.62 647.691 1116.1 644.12 C 1115.05 636.996 1115.68 628.026 1115.77 620.868 z"/>
<path transform="translate(0,0)" fill="rgb(20,71,107)" d="M 1728 614.183 C 1735.76 613.989 1741.63 613.096 1748.49 617.323 C 1760.67 624.833 1758.81 639.348 1751.83 650.132 C 1744.36 656.375 1737.54 655.042 1727.94 654.879 L 1728 614.183 z"/>
<path transform="translate(0,0)" fill="rgb(255,255,255)" d="M 1734.29 620.848 C 1751.54 620.746 1754.36 632.615 1746.89 646.067 C 1743.23 648.178 1740.33 648.767 1736.39 647.475 C 1732.58 643.024 1734.26 627.762 1734.29 620.848 z"/>
<path transform="translate(0,0)" fill="rgb(20,71,107)" d="M 487.384 614.181 L 491.835 614.11 C 509.022 613.916 528.741 620.367 509.425 638.442 C 509.249 640.491 514.054 649.925 515.196 653.989 L 514.007 655.035 C 510.77 654.888 510.788 655.402 508.394 653.696 C 506.212 648.124 504.152 641.279 499.459 637.647 L 497.364 638.121 C 493.779 642.94 494.517 648.756 491.469 654.786 C 488.775 655.066 489.763 655.364 487.801 653.861 C 487.075 641.471 487.38 626.772 487.384 614.181 z"/>
<path transform="translate(0,0)" fill="rgb(255,255,255)" d="M 493.955 620.915 L 496.441 620.839 C 501.016 620.716 505.181 620.092 508.567 623.31 C 510.151 626.542 509.611 627.701 508.847 631.226 C 504.478 633.312 499.594 634.222 495.37 631.741 C 493.188 628.759 493.824 624.704 493.955 620.915 z"/>
<path transform="translate(0,0)" fill="rgb(20,71,107)" d="M 1829.07 614.298 C 1838.16 614.048 1850.44 612.865 1857.27 621.185 C 1862.06 627.017 1855.08 635.102 1850.05 638.591 C 1852.04 642.657 1856.23 650.43 1856.09 654.573 L 1854.26 655.749 C 1852.7 655.388 1851.47 654.771 1850 654.151 C 1848.56 650.571 1845.74 642.45 1843.41 639.977 C 1830.37 634.989 1838.65 648.346 1833.97 654.871 C 1830.24 654.881 1831.13 655.461 1829.09 653.49 C 1828.89 640.427 1828.88 627.361 1829.07 614.298 z"/>
<path transform="translate(0,0)" fill="rgb(255,255,255)" d="M 1835.68 620.859 C 1841.6 620.739 1846.34 619.563 1850.52 624.151 C 1851.4 627.607 1850.76 628.674 1849.59 632.038 C 1845.64 633.018 1839.67 632.83 1835.45 632.874 L 1835.68 620.859 z"/>
<path transform="translate(0,0)" fill="rgb(20,71,107)" d="M 840.668 613.949 L 845.521 614.253 C 849.886 617.237 855.05 633.746 857.971 640.158 C 860.62 634.326 866.833 615.875 871.083 613.486 L 872.569 614.61 C 876.1 621.379 877.675 650.005 871.734 655.07 L 870.03 654.494 C 868.018 650.936 868.647 645.505 868.73 641.25 C 868.74 637.954 869.321 634.876 867.796 632.455 C 865.061 634.997 859.524 650.676 857.827 654.936 C 854.213 646.688 850.532 636.628 847.167 628.134 C 847.162 632.793 847.562 651.884 845.75 654.859 C 842.091 654.892 841.3 653.414 840.947 649.631 C 839.879 638.175 840.498 625.386 840.668 613.949 z"/>
<path transform="translate(0,0)" fill="rgb(20,71,107)" d="M 1568.55 322.332 L 1595.31 322.544 L 1595.26 350.554 C 1586.81 350.746 1577.29 350.456 1568.75 350.392 C 1568.51 341.22 1568.61 331.549 1568.55 322.332 z"/>
<path transform="translate(0,0)" fill="rgb(20,71,107)" d="M 335.143 613.598 L 339.557 614.122 C 344.588 617.153 354.093 636.211 358.031 642.618 C 357.934 634.396 357.602 624.881 358.022 616.779 C 360.164 613.888 358.997 614.603 362.322 613.969 L 363.9 615.173 C 365.16 622.457 364.478 646.394 364.38 654.896 L 360.012 654.844 C 355.15 652.046 345.486 633.1 341.847 627.141 C 341.853 632.259 342.558 649.189 341.51 653.052 C 339.155 655.378 340.311 654.851 337.207 655.187 C 333.607 651.478 335.12 621.478 335.143 613.598 z"/>
<path transform="translate(0,0)" fill="rgb(20,71,107)" d="M 198.661 613.759 L 203.011 614.196 C 207.713 617.075 217.619 636.439 221.028 642.145 C 220.996 635.922 220.847 620.684 221.602 615.058 L 223.338 613.992 L 225.346 614.646 C 229.357 620.35 227.738 646.324 227.656 654.971 L 223.036 654.796 C 218.363 652.072 208.348 632.756 204.996 627.128 C 204.908 632.41 205.866 649.806 204.461 653.379 C 201.883 655.542 203.056 655.19 200.102 654.983 C 197.264 651.563 198.624 621.034 198.661 613.759 z"/>
<path transform="translate(0,0)" fill="rgb(20,71,107)" d="M 1676.04 613.495 L 1680.54 614.119 C 1685.59 617.452 1694.4 635.68 1698.91 642.593 C 1698.88 636.76 1697.83 618.342 1700.24 614.474 L 1702.85 613.923 L 1704.56 615.237 C 1705.67 622.555 1705.13 646.762 1705.09 655.261 L 1700.96 654.969 C 1696.11 652.526 1686.11 632.906 1682.67 626.807 C 1682.74 633.864 1683.04 647.597 1682.19 654.112 L 1680.68 655.113 L 1678.38 654.368 C 1674.18 648.443 1675.92 622.181 1676.04 613.495 z"/>
<path transform="translate(0,0)" fill="rgb(20,71,107)" d="M 1332.13 613.503 L 1336.53 614.142 C 1341.59 617.429 1351.2 636.652 1354.66 642.664 C 1354.73 634.725 1352.88 618.963 1357.17 614.129 L 1359.34 614.034 C 1362.38 617.334 1360.97 649.181 1360.88 655.587 L 1356.45 654.965 C 1351.45 651.932 1342.25 633.14 1338.83 627.212 C 1338.71 632.342 1339.45 650.104 1338.03 653.527 C 1335.36 655.541 1336.53 655.249 1333.64 654.963 C 1331.15 651.383 1332.15 620.866 1332.13 613.503 z"/>
<path transform="translate(0,0)" fill="rgb(20,71,107)" d="M 1292.16 614.123 C 1297.55 613.555 1307.97 615.286 1309.45 621.017 C 1303.02 627.267 1298.31 618.733 1290.87 622.556 C 1285.29 625.425 1286.85 640.871 1289.49 644.944 C 1292.5 649.581 1303.45 650.534 1304.05 642.221 C 1301.85 639.214 1301.77 640.012 1297.26 638.781 L 1298.5 635.55 C 1300.79 633.497 1301.47 632.622 1304.61 632.225 C 1309.45 634.291 1312.66 639.971 1310.85 644.878 C 1302.32 667.957 1273.45 650.424 1281.44 628.504 C 1284.48 620.175 1283.89 619.235 1292.16 614.123 z"/>
<path transform="translate(0,0)" fill="rgb(20,71,107)" d="M 262.003 614.017 C 267.778 613.584 273.661 614.225 277.33 619.347 C 277.477 622.435 277.849 621.197 275.504 623.976 C 271.268 624.918 271.061 620.623 265.061 620.444 C 251.055 623.627 252.193 649.383 269.792 648.127 C 279.934 642.385 268.955 641.057 266.589 635.041 C 286.432 625.865 282.891 653.072 269.266 655.108 C 246.419 658.522 242.871 624.162 262.003 614.017 z"/>
<path transform="translate(0,0)" fill="rgb(20,71,107)" d="M 791.454 614.118 C 795.739 614.163 813.969 613.397 816.097 615.037 L 816.247 618.064 C 812.29 625.294 806.169 617.656 798.703 622.026 C 797.588 625.768 797.636 624.201 798.477 627.979 C 802.067 630.817 803.554 629.817 808.612 631.253 L 809.213 633.089 C 807.746 636.656 808.669 635.619 805.923 637.652 C 803.186 637.246 801.861 636.784 799.279 637.752 C 797.193 640.714 797.878 644.061 798.091 647.783 C 803.811 649.146 813.376 646.575 817.411 649.401 C 817.744 652.347 818.113 651.612 816.856 653.677 C 811.276 656.035 797.943 655.129 791.398 655.031 L 791.454 614.118 z"/>
<path transform="translate(0,0)" fill="rgb(20,71,107)" d="M 389.018 614.308 C 395.847 614.216 402.757 614.056 409.586 614.21 C 412.812 614.283 413.488 614.861 414.478 617.458 L 412.92 620.306 C 408.574 622.397 402.489 619.602 396.528 621.212 C 394.086 624.507 394.514 623.106 394.17 626.705 C 397.144 629.919 401.354 630.25 405.839 631.153 C 406.363 634.385 406.607 633.219 405.275 635.774 C 401.389 636.291 400.636 636.376 397.036 637.945 C 394.662 641.478 395.501 641.953 395.446 647.031 C 398.988 650.534 408.996 646.072 414.535 649.258 C 415.178 652.674 415.328 651.32 414.117 654.429 C 410.651 655.47 393.642 654.999 388.941 654.967 C 389.041 641.415 389.067 627.861 389.018 614.308 z"/>
<path transform="translate(0,0)" fill="rgb(20,71,107)" d="M 1777.54 613.715 L 1783.06 614.355 C 1786.74 619.194 1779.18 646.221 1791.61 650.292 C 1807.01 646.969 1796.07 621.088 1801.83 614.12 C 1804.98 614.186 1804.36 613.709 1806.57 615.207 L 1806.87 618.75 C 1806.96 626.323 1808.53 644.914 1802.4 651.642 C 1795.16 659.586 1779.76 654.942 1778.16 644.192 C 1776.97 636.239 1777.5 622.934 1777.54 613.715 z"/>
<path transform="translate(0,0)" fill="rgb(20,71,107)" d="M 539.142 614.225 C 544.75 614.331 560.232 612.625 563.684 615.793 C 564.459 618.646 564.484 617.453 563.532 620.309 C 556.58 623.519 550.728 617.042 544.696 623.876 C 543.926 629.856 551.532 630.188 556.646 631.516 C 556.559 634.873 557.117 634.255 555.359 636.107 C 551.662 636.22 550.319 636.029 547.082 637.842 C 544.977 641.554 545.759 641.974 545.824 646.912 C 549.427 650.571 560.438 646.092 565.042 649.304 C 565.541 652.306 565.705 651.085 564.327 653.91 C 560.576 655.924 544.623 654.972 539.095 654.931 L 539.142 614.225 z"/>
<path transform="translate(0,0)" fill="rgb(20,71,107)" d="M 1158.09 614.127 C 1162.97 614.225 1177.79 613.494 1181.4 614.663 C 1183.5 617.479 1183.12 616.161 1182.9 619.593 C 1178.36 622.689 1170.8 619.253 1165.23 621.623 C 1163.8 625.177 1163.5 624.432 1164.13 627.719 C 1167.42 631.045 1170.97 628.868 1175.02 631.553 C 1175.11 634.675 1175.51 633.69 1174 636.053 C 1170.33 636.442 1169.32 636.401 1166.05 638.184 C 1163.91 641.994 1164.66 643.135 1164.66 647.96 C 1168.85 648.722 1178.48 647.332 1182.79 648.708 C 1183.85 649.045 1183.85 650.31 1184.27 651.755 L 1182.9 653.681 C 1177.28 656.136 1164.6 655.109 1158.09 654.954 L 1158.09 614.127 z"/>
<path transform="translate(0,0)" fill="rgb(20,71,107)" d="M 952.224 614.164 C 958.87 614.277 976.245 611.479 977.793 618.635 C 973.542 624.263 964.386 617.927 959.155 622.222 C 956.391 631.863 965.184 628.901 970.071 631.84 L 970.144 633.678 C 968.231 636.977 969.305 636.105 966.245 637.462 C 963.673 636.919 962.375 636.336 960.015 637.377 C 957.943 640.452 958.533 643.243 958.757 646.99 C 962.083 650.253 970.705 646.868 977.175 648.682 C 978.58 651.698 978.386 650.343 977.64 653.89 C 974.922 655.786 957.199 654.945 952.372 654.929 L 952.224 614.164 z"/>
<path transform="translate(0,0)" fill="rgb(20,71,107)" d="M 1629.2 614.111 C 1634.86 614.181 1646.49 613.598 1651.53 614.396 C 1654.29 616.481 1653.56 615.364 1654.42 618.532 L 1653.46 620.025 C 1647.22 623.676 1641.02 616.736 1634.56 623.826 C 1633.96 629.969 1641.3 630.121 1646.49 631.352 L 1646.72 634.329 C 1643.97 638.371 1643.64 634.529 1637.1 637.951 C 1634.8 641.497 1635.6 642.145 1635.49 647.101 C 1641.26 650.472 1652.42 645.552 1655.56 651.825 L 1654.08 654.311 C 1648.49 655.491 1635.43 655.044 1629.14 655.009 L 1629.2 614.111 z"/>
<path transform="translate(0,0)" fill="rgb(20,71,107)" d="M 149.275 614.162 C 155.754 614.231 173.092 611.618 174.64 618.568 L 173.531 619.996 C 167.276 623.851 160.959 616.814 154.678 623.801 C 153.831 629.987 161.075 630.184 166.235 631.386 L 166.887 633.954 C 165.021 637.432 163.349 634.445 157.106 637.969 C 154.911 641.532 155.726 641.973 155.79 646.919 C 159.465 650.375 169.095 646.331 174.413 648.822 C 175.361 652.189 175.361 650.782 174.407 654.154 C 171.876 655.605 153.625 655 149.339 654.978 L 149.275 614.162 z"/>
<path transform="translate(0,0)" fill="rgb(20,71,107)" d="M 1879.85 614.099 C 1886.35 614.063 1902.55 611.903 1904.95 617.913 C 1900.44 625.091 1893.04 617.864 1886.4 621.982 C 1884.87 633.396 1891.2 628.254 1897.11 631.528 L 1897.26 633.777 C 1893.31 641.329 1893.27 634.96 1887.24 637.81 C 1885.48 640.647 1885.92 642.718 1886.13 646.006 C 1889.15 652.146 1898.49 644.702 1905.96 650.259 C 1906.11 657.602 1885.67 655.045 1879.91 654.938 L 1879.85 614.099 z"/>
<path transform="translate(0,0)" fill="rgb(20,71,107)" d="M 1383.85 614.273 C 1388.2 614.233 1405.55 613.407 1407.82 615.082 L 1407.95 618.537 C 1403.8 625.012 1397.89 617.647 1390.72 622.193 C 1389.68 624.894 1389.74 625.239 1390.59 628.018 C 1394.03 630.832 1395.69 629.972 1400.61 631.32 L 1401.24 633.083 C 1399.68 636.792 1400.64 635.892 1397.82 637.542 C 1395.08 637.017 1393.87 636.484 1391.34 637.576 C 1389.35 640.331 1389.98 643.255 1390.2 646.71 C 1393.77 651.386 1407.31 644.115 1409.71 651.279 L 1408.71 653.217 C 1403.99 656.246 1390.27 655.011 1383.58 654.945 L 1383.85 614.273 z"/>
<path transform="translate(0,0)" fill="rgb(20,71,107)" d="M 438.96 614.184 C 445.925 614.064 461.224 611.691 464.298 617.837 C 460.497 625.066 450.869 617.61 445.395 622.118 C 444.668 624.78 445.008 625.37 445.893 628.031 C 449.466 630.795 449.933 630.047 455.083 630.762 L 456.257 632.475 C 455.379 636.332 456.168 635.344 453.71 637.249 C 450.912 636.889 449.195 636.415 446.566 637.551 C 444.325 641.488 445.127 641.503 445.204 646.734 C 449.074 652.043 463.081 643.663 465.04 651.774 L 463.69 653.952 C 460.644 656.07 443.807 655.035 438.927 654.946 L 438.96 614.184 z"/>
<path transform="translate(0,0)" fill="rgb(20,71,107)" d="M 1212.04 614.144 C 1217.9 613.546 1227.14 613.734 1229.11 620.69 C 1224.2 623.855 1216.56 619.883 1210.99 622.269 L 1210.52 624.096 C 1216.19 634.878 1238.85 630.698 1229.5 648.873 C 1226.99 653.748 1223.82 654.355 1218.87 655.768 C 1211.71 655.34 1208.15 653.307 1203.5 647.996 L 1203.86 645.765 C 1211.6 642.714 1217.72 655.418 1224.72 644.592 C 1223.06 635.569 1188.23 631.619 1212.04 614.144 z"/>
<path transform="translate(0,0)" fill="rgb(20,71,107)" d="M 663.764 614.153 L 689.547 614.188 C 692.14 616.026 691.382 615.018 692.445 617.966 L 691.89 618.911 C 689.233 620.905 685.119 621.308 681.747 621.927 C 680.096 625.136 680.891 639.94 680.956 644.373 C 681.079 647.579 681.617 651.954 680.132 654.636 L 677.847 655.144 C 668.531 650.892 678.236 627.823 672.933 621.147 L 664.992 620.793 C 663.463 618.737 663.924 617.149 663.764 614.153 z"/>
<path transform="translate(0,0)" fill="rgb(20,71,107)" d="M 1505.92 614.199 C 1510.66 614.159 1528.36 613.68 1531.89 614.604 C 1533.92 617.015 1533.44 615.822 1533.55 619.195 C 1530.23 622.773 1529.63 619.313 1523.76 621.555 C 1522.33 626.023 1523.07 641.926 1523.14 647.25 C 1523.12 651.002 1523.8 652.13 1521.94 654.667 C 1518.55 654.938 1519.31 655.404 1517.02 653.899 C 1515.75 647.811 1516.52 628.343 1516.64 620.975 C 1513.43 621.027 1511.14 621.069 1507.92 620.778 C 1505.41 618.286 1506.19 618.723 1505.92 614.199 z"/>
<path transform="translate(0,0)" fill="rgb(20,71,107)" d="M 304.115 613.698 L 309.535 614.432 C 312.215 617.23 311.034 649.318 310.98 655.558 C 308.276 655.295 306.561 655.439 304.456 653.797 C 303.403 644.427 304.042 623.936 304.115 613.698 z"/>
<path transform="translate(0,0)" fill="rgb(20,71,107)" d="M 1252.75 613.752 C 1254.73 613.894 1256.5 614.224 1258.45 614.55 C 1260.33 618.818 1259.39 649.1 1259.32 655.373 C 1255.97 654.976 1255.11 655.498 1253.12 653.546 C 1252.12 643.836 1252.7 624.223 1252.75 613.752 z"/>
<path transform="translate(0,0)" fill="rgb(20,71,107)" d="M 1931.02 645.496 C 1932.9 644.998 1934.9 645.615 1936.18 647.087 C 1937.46 648.559 1937.79 650.629 1937.03 652.423 C 1936.27 654.218 1934.55 655.423 1932.61 655.53 C 1929.99 655.675 1927.69 653.817 1927.28 651.23 C 1926.87 648.643 1928.49 646.165 1931.02 645.496 z"/>
<path transform="translate(0,0)" fill="rgb(20,71,107)" d="M 1055.31 645.544 C 1058.05 644.953 1060.76 646.697 1061.36 649.444 C 1061.96 652.19 1060.23 654.904 1057.48 655.513 C 1054.72 656.124 1052 654.379 1051.39 651.62 C 1050.79 648.861 1052.54 646.138 1055.31 645.544 z"/>
</svg>